<svg width="11" height="11" viewBox="0 0 11 11" fill="none" xmlns="http://www.w3.org/2000/svg">
<path d="M9.8187 2.2099C10.1201 1.88681 10.1111 1.37164 9.79871 1.05922C9.48629 0.746801 8.98871 0.755443 8.68733 1.07852L5.27957 4.73166L1.72611 1.29955C1.40831 0.992601 0.893061 0.992601 0.575263 1.29955C0.257465 1.60649 0.257464 2.10415 0.575263 2.4111L4.18866 5.90111L0.799856 9.53393C0.498476 9.85701 0.507425 10.3722 0.819844 10.6846C1.13226 10.997 1.62985 10.9884 1.93123 10.6653L5.33899 7.01216L8.8924 10.4442C9.2102 10.7512 9.72545 10.7512 10.0433 10.4442C10.3611 10.1373 10.3611 9.63963 10.0433 9.33268L6.42989 5.84271L9.8187 2.2099Z" fill="white"/>
</svg>
